<?xml version="1.0" encoding="utf-8"?>
<!-- Generator: Adobe Illustrator 18.1.1, SVG Export Plug-In . SVG Version: 6.00 Build 0)  -->
<svg version="1.1" id="レイヤー_1" xmlns="http://www.w3.org/2000/svg" xmlns:xlink="http://www.w3.org/1999/xlink" x="0px"
	 y="0px" viewBox="0 0 29 21.9" enable-background="new 0 0 29 21.9" xml:space="preserve">
<path id="card.svg" fill="#05056B" d="M27.1,21.9H1.9c-1.2,0-1.9-1.2-1.9-2.3V5.3c0-1.1,0.8-2,2-2l2,0.1V0.2L8.2,0L8.1,2.9h12.7
	l0-2.9L25,0.2v2.7h2.1c1.2,0,1.9,1.2,1.9,2.3v14.3C29,20.7,28.2,21.9,27.1,21.9L27.1,21.9z M7,0.9H5v4h2V0.9L7,0.9z M8.2,8.1
	c-1.3,0-2.3,1.3-2.3,2.9c0,1.6,1,2.9,2.3,2.9s2.3-1.3,2.3-2.9C10.5,9.5,9.5,8.1,8.2,8.1L8.2,8.1z M11.9,15.4
	c-0.6-0.4-2.2-0.7-2.2-0.7s-1.1,1-1.5,1c-0.4,0-1.5-1.1-1.5-1.1S5.1,15,4.5,15.4c-0.6,0.4-0.8,2.5-0.8,2.5h9
	C12.7,17.9,12.5,15.8,11.9,15.4L11.9,15.4z M24,0.9h-2v4h2V0.9L24,0.9z M25,9.9h-9v1h9V9.9L25,9.9z M25,11.9h-9v1h9V11.9L25,11.9z
	 M25,13.9h-9v1h9V13.9L25,13.9z M25,15.9h-9v1h9V15.9L25,15.9z"/>
<g>
</g>
<g>
</g>
<g>
</g>
<g>
</g>
<g>
</g>
<g>
</g>
<g>
</g>
<g>
</g>
<g>
</g>
<g>
</g>
<g>
</g>
<g>
</g>
<g>
</g>
<g>
</g>
<g>
</g>
</svg>
