<?xml version="1.0" encoding="utf-8"?>
<!-- Generator: Adobe Illustrator 18.1.1, SVG Export Plug-In . SVG Version: 6.00 Build 0)  -->
<svg version="1.1" id="レイヤー_1" xmlns="http://www.w3.org/2000/svg" xmlns:xlink="http://www.w3.org/1999/xlink" x="0px"
	 y="0px" viewBox="0 0 26.6 25.4" enable-background="new 0 0 26.6 25.4" xml:space="preserve">
<g id="star.svg">
	<path fill="#05056B" d="M12.4,0.7c0.5-1,1.3-1,1.8,0l2.6,5.4c0.5,1,1.8,1.9,2.9,2.1L25.6,9c1.1,0.2,1.3,0.9,0.5,1.7l-4.3,4.2
		c-0.8,0.8-1.3,2.3-1.1,3.4l1,5.9c0.2,1.1-0.5,1.6-1.4,1l-5.3-2.8c-1-0.5-2.6-0.5-3.5,0l-5.3,2.8c-1,0.5-1.6,0-1.4-1l1-5.9
		c0.2-1.1-0.3-2.6-1.1-3.4l-4.3-4.2C-0.3,10-0.1,9.2,1,9l5.9-0.9C8,8,9.3,7.1,9.8,6.1L12.4,0.7z"/>
</g>
<g>
</g>
<g>
</g>
<g>
</g>
<g>
</g>
<g>
</g>
<g>
</g>
<g>
</g>
<g>
</g>
<g>
</g>
<g>
</g>
<g>
</g>
<g>
</g>
<g>
</g>
<g>
</g>
<g>
</g>
</svg>
